<svg xmlns="http://www.w3.org/2000/svg" viewBox="0 0 800 800">
  <path fill="#FFF" d="M763.55 338.662l-119.265-51.11V128.57c0-29.982-24.303-54.286-54.285-54.286H210c-29.98 0-54.286 24.304-54.286 54.285v158.98L36.45 338.663C26.47 342.94 20 352.752 20 363.612v307.815c0 29.982 24.304 54.287 54.286 54.287h651.43c29.98 0 54.284-24.305 54.284-54.287V363.61c0-10.858-6.47-20.67-16.45-24.948z"/>
  <path fill="#000" d="M763.55 338.662l-119.265-51.11V128.57c0-29.982-24.303-54.286-54.285-54.286H210c-29.98 0-54.286 24.304-54.286 54.285v158.98L36.45 338.663C26.47 342.94 20 352.752 20 363.612v307.815c0 29.982 24.304 54.287 54.286 54.287h651.43c29.98 0 54.284-24.305 54.284-54.287V363.61c0-10.858-6.47-20.67-16.45-24.948zm-13.08 23.924l-106.185 60.68V317.082l106.184 45.504zM182.856 128.57c.017-14.98 12.16-27.124 27.143-27.142h380c14.982.018 27.127 12.16 27.143 27.143v310.204L400 562.857 182.857 438.773V128.57zm-27.143 188.51v106.182L49.53 362.586l106.184-45.506zm597.143 354.348c-.016 14.982-12.158 27.127-27.143 27.145H74.286c-14.983-.018-27.126-12.162-27.144-27.145V392.484l339.39 193.938c8.346 4.77 18.59 4.77 26.933 0l339.393-193.938v278.944z"/>
  <path fill="#000" d="M421.324 237.152c10.457-.678 20.625 3.592 27.46 11.53 3.65 4.376 5.603 9.917 5.5 15.612 0 7.496 6.077 13.572 13.573 13.572s13.57-6.076 13.57-13.572c.13-11.66-3.795-23.004-11.092-32.1-11.89-14.752-30.078-22.986-49.012-22.186-30.606 0-65.68 21.93-73.83 81.43h-15.352c-7.493 0-13.57 6.074-13.57 13.57s6.077 13.572 13.57 13.572h13.572c-.023 9.076.573 18.146 1.783 27.143H332.14c-7.493 0-13.57 6.074-13.57 13.57s6.077 13.572 13.57 13.572h21.94c7.92 30.99 35.28 53.078 67.242 54.287 18.934.8 37.12-7.434 49.012-22.188 7.297-9.096 11.22-20.44 11.092-32.1 0-7.496-6.074-13.572-13.57-13.572s-13.572 6.076-13.572 13.572c.102 5.695-1.85 11.238-5.5 15.613-6.836 7.938-17.004 12.207-27.46 11.53-16.84-.733-31.637-11.4-37.654-27.144h29.9c7.497 0 13.57-6.076 13.57-13.572s-6.073-13.57-13.57-13.57h-38.318c-1.58-8.962-2.38-18.042-2.396-27.142h40.715c7.497 0 13.57-6.076 13.57-13.572s-6.073-13.57-13.57-13.57h-38.318c5.797-33.56 22.492-54.284 46.072-54.284z"/>
</svg>
