<?xml version="1.0" standalone="no"?>
<!DOCTYPE svg PUBLIC "-//W3C//DTD SVG 20010904//EN"
 "http://www.w3.org/TR/2001/REC-SVG-20010904/DTD/svg10.dtd">
<svg version="1.0" xmlns="http://www.w3.org/2000/svg"
 width="760.000000pt" height="760.000000pt" viewBox="0 0 760.000000 760.000000"
 preserveAspectRatio="xMidYMid meet">
<metadata>
Created by potrace 1.11, written by Peter Selinger 2001-2013
</metadata>
<g transform="translate(0.000000,760.000000) scale(0.100000,-0.100000)"
fill="#000000" stroke="none">
<path d="M1805 7049 c-185 -31 -342 -161 -417 -347 l-23 -57 -5 -860 -5 -859
-610 -262 c-650 -278 -671 -289 -718 -377 l-22 -42 0 -1635 0 -1635 24 -65
c32 -89 101 -191 164 -241 70 -56 178 -106 257 -119 90 -14 6610 -14 6700 0
79 13 187 63 257 119 63 50 132 152 164 241 l24 65 0 1635 0 1635 -22 42 c-47
88 -68 99 -718 377 l-610 262 -5 859 -5 860 -23 57 c-65 162 -179 270 -347
331 l-60 22 -1975 1 c-1086 1 -1997 -2 -2025 -7z m4003 -288 c30 -14 69 -43
92 -68 75 -86 70 45 70 -1708 l0 -1572 -1079 -617 c-593 -339 -1084 -616
-1091 -616 -7 0 -498 277 -1091 616 l-1079 617 0 1572 c0 1744 -5 1621 67
1704 39 47 94 78 156 91 23 4 910 7 1972 6 l1930 -1 53 -24z m-4448 -2661 c0
-377 -3 -520 -11 -520 -6 0 -245 134 -531 297 -408 233 -516 299 -502 305 397
172 1022 437 1032 438 9 0 12 -110 12 -520z m5418 299 c284 -122 518 -222 520
-224 4 -4 -1035 -595 -1047 -595 -8 0 -11 143 -11 520 0 365 3 520 11 520 6 0
243 -100 527 -221z m-4802 -1500 c935 -534 1716 -977 1738 -985 49 -18 123
-18 172 0 22 8 803 451 1738 985 934 534 1700 971 1702 971 2 0 4 -631 4
-1403 0 -1549 4 -1461 -63 -1549 -20 -27 -55 -54 -92 -73 l-59 -30 -3316 0
-3316 0 -59 30 c-37 19 -72 46 -92 73 -67 88 -63 0 -63 1549 0 772 2 1403 4
1403 2 0 768 -437 1702 -971z"/>
<path d="M3870 5684 c-148 -31 -319 -150 -409 -283 -85 -125 -150 -290 -173
-438 l-12 -73 -85 0 c-141 -1 -201 -42 -201 -140 0 -96 60 -139 193 -140 l77
0 0 -67 c0 -38 3 -98 7 -135 l6 -68 -103 0 -102 0 -39 -39 c-36 -35 -39 -43
-39 -93 0 -41 5 -62 21 -82 38 -48 67 -56 202 -56 l124 0 23 -62 c74 -208 239
-369 455 -445 73 -25 92 -28 220 -28 128 1 146 3 207 27 149 59 255 154 321
286 38 77 41 92 45 175 3 80 0 96 -18 125 -50 80 -173 78 -226 -3 -9 -13 -20
-54 -24 -91 -31 -245 -340 -335 -566 -164 -46 34 -134 147 -134 171 0 5 72 9
161 9 130 0 168 3 196 17 86 41 98 160 23 228 -20 18 -40 20 -243 25 l-221 5
-8 30 c-4 17 -11 76 -14 133 l-7 102 213 0 c192 0 218 2 255 20 51 24 75 65
75 124 0 36 -6 52 -31 80 -17 20 -47 40 -67 46 -20 5 -121 10 -224 10 -218 0
-203 -12 -162 126 36 127 87 217 164 295 86 87 148 112 275 113 107 0 158 -18
231 -86 54 -50 83 -106 84 -163 0 -116 116 -191 207 -135 58 35 66 59 61 166
-5 86 -9 103 -46 178 -72 145 -230 268 -389 301 -85 18 -218 18 -303 -1z"/>
</g>
</svg>
