<?xml version="1.0" standalone="no"?>
<!DOCTYPE svg PUBLIC "-//W3C//DTD SVG 20010904//EN"
 "http://www.w3.org/TR/2001/REC-SVG-20010904/DTD/svg10.dtd">
<svg version="1.0" xmlns="http://www.w3.org/2000/svg"
 width="200.000000pt" height="200.000000pt" viewBox="0 0 200.000000 200.000000"
 preserveAspectRatio="xMidYMid meet">
<metadata>
Created by potrace 1.14, written by Peter Selinger 2001-2017
</metadata>
<g transform="translate(0.000000,200.000000) scale(0.100000,-0.100000)"
fill="#000000" stroke="none">
<path d="M442 1833 c-18 -9 -43 -30 -55 -47 -21 -29 -22 -44 -27 -266 l-5
-234 -160 -68 c-88 -37 -168 -77 -178 -89 -16 -19 -17 -56 -17 -443 0 -394 2
-424 20 -463 11 -25 33 -51 52 -63 32 -20 48 -20 926 -20 990 0 940 -3 982 65
19 31 20 49 20 472 0 336 -3 443 -13 456 -6 9 -84 47 -172 84 l-160 69 -5 229
c-6 258 -10 274 -80 314 -37 21 -48 21 -566 21 -467 0 -533 -2 -562 -17z
m1102 -74 l26 -21 -2 -425 -3 -426 -260 -149 c-143 -82 -270 -154 -282 -160
-18 -9 -60 12 -307 153 l-286 163 0 408 c0 425 2 446 44 466 13 7 202 11 532
11 503 1 512 1 538 -20z m-1188 -816 c-5 -5 -265 139 -266 147 0 3 60 30 133
61 l132 56 3 -130 c1 -71 1 -132 -2 -134z m1558 145 c-4 -5 -231 -135 -256
-146 -4 -2 -8 57 -8 131 l0 135 134 -57 c73 -31 132 -59 130 -63z m-1379 -338
c499 -284 457 -264 497 -246 18 7 227 124 463 259 l430 245 3 -376 3 -377 -26
-23 -26 -22 -880 0 c-866 0 -879 0 -899 20 -19 19 -20 33 -20 401 l0 381 33
-20 c17 -11 208 -120 422 -242z"/>
<path d="M985 1473 c-16 -8 -39 -23 -49 -32 -24 -20 -66 -109 -66 -138 0 -19
-6 -23 -29 -23 -58 0 -71 -63 -13 -68 29 -3 32 -6 32 -36 0 -27 -5 -33 -32
-41 -60 -18 -42 -75 23 -75 22 0 32 -8 50 -39 25 -44 58 -72 108 -89 48 -17
79 -15 126 8 64 31 106 120 70 150 -23 19 -48 8 -57 -26 -17 -65 -89 -89 -145
-48 -41 31 -40 44 4 44 43 0 57 7 66 32 11 30 -19 48 -79 48 -49 0 -54 2 -60
24 -9 38 2 46 66 46 48 0 61 4 70 19 16 32 -12 51 -76 51 -62 0 -64 4 -33 67
44 91 149 98 183 12 19 -46 29 -53 57 -38 18 9 20 17 15 47 -7 47 -34 82 -77
104 -42 22 -114 22 -154 1z"/>
<path d="M330 340 l0 -60 35 0 c43 0 63 29 46 67 -9 20 -17 24 -36 20 -19 -3
-25 0 -25 14 0 11 -4 19 -10 19 -6 0 -10 -27 -10 -60z m58 -18 c2 -14 -2 -22
-12 -22 -19 0 -29 17 -22 36 8 22 30 12 34 -14z"/>
<path d="M430 390 c0 -5 7 -10 15 -10 8 0 15 5 15 10 0 6 -7 10 -15 10 -8 0
-15 -4 -15 -10z"/>
<path d="M480 340 c0 -33 4 -60 10 -60 6 0 10 27 10 60 0 33 -4 60 -10 60 -6
0 -10 -27 -10 -60z"/>
<path d="M520 340 c0 -33 4 -60 10 -60 6 0 10 27 10 60 0 33 -4 60 -10 60 -6
0 -10 -27 -10 -60z"/>
<path d="M610 390 c0 -5 7 -10 15 -10 8 0 15 5 15 10 0 6 -7 10 -15 10 -8 0
-15 -4 -15 -10z"/>
<path d="M960 340 c0 -47 3 -60 15 -60 12 0 15 13 15 60 0 47 -3 60 -15 60
-12 0 -15 -13 -15 -60z"/>
<path d="M1197 377 c-9 -23 8 -92 23 -95 12 -2 15 7 14 45 -1 26 -3 51 -3 56
-2 12 -29 8 -34 -6z"/>
<path d="M436 363 c-3 -3 -6 -24 -6 -45 0 -27 4 -38 15 -38 11 0 15 11 15 39
0 38 -10 57 -24 44z"/>
<path d="M616 359 c-2 -8 -7 -36 -9 -62 -4 -40 -2 -48 12 -45 12 2 17 16 19
52 3 47 -12 86 -22 55z"/>
<path d="M662 328 c3 -42 4 -43 41 -46 l37 -3 0 45 c0 52 -17 63 -22 14 -2
-22 -9 -34 -20 -36 -15 -3 -18 4 -18 32 0 20 -5 36 -11 36 -6 0 -9 -17 -7 -42z"/>
<path d="M760 324 c0 -51 17 -60 22 -11 2 20 8 32 18 32 10 0 16 -12 18 -32 5
-49 24 -40 20 10 -3 41 -4 42 -40 43 l-38 1 0 -43z"/>
<path d="M871 357 c-27 -27 0 -86 35 -73 10 4 14 2 11 -6 -2 -8 -16 -12 -33
-10 -22 3 -26 0 -18 -8 6 -6 24 -10 40 -8 28 3 29 6 32 59 3 56 3 56 -26 57
-16 0 -34 -4 -41 -11z m46 -23 c8 -21 -13 -42 -28 -27 -13 13 -5 43 11 43 6 0
13 -7 17 -16z"/>
<path d="M1016 354 c-19 -19 -20 -35 -3 -58 14 -19 58 -19 64 0 2 7 -6 10 -22
7 -15 -3 -25 -1 -25 6 0 6 14 11 30 11 33 0 35 3 20 31 -13 23 -43 25 -64 3z
m44 -14 c0 -5 -7 -10 -15 -10 -8 0 -15 5 -15 10 0 6 7 10 15 10 8 0 15 -4 15
-10z"/>
<path d="M1112 358 c-19 -19 -14 -28 19 -40 21 -7 27 -14 20 -21 -7 -7 -15 -6
-26 3 -18 15 -34 5 -18 -11 6 -6 23 -9 39 -7 38 4 44 35 10 48 -34 13 -33 24
1 15 23 -5 25 -4 14 9 -16 19 -42 21 -59 4z"/>
<path d="M1267 364 c-15 -16 -6 -24 21 -18 18 5 24 3 17 -4 -5 -5 -19 -12 -30
-14 -12 -2 -20 -11 -20 -23 0 -16 8 -21 38 -23 l38 -3 -3 43 c-3 38 -6 43 -28
46 -14 2 -29 0 -33 -4z m41 -56 c-6 -18 -28 -21 -28 -4 0 9 7 16 16 16 9 0 14
-5 12 -12z"/>
<path d="M1354 361 c-2 -2 -4 -22 -4 -43 0 -46 23 -49 28 -4 2 15 10 30 18 33
23 9 16 21 -12 19 -14 0 -28 -3 -30 -5z"/>
<path d="M1462 358 c-7 -7 -12 -21 -12 -33 0 -44 60 -63 80 -26 14 27 13 37
-6 55 -18 19 -45 21 -62 4z m48 -33 c0 -25 -23 -35 -35 -15 -10 16 2 40 20 40
9 0 15 -9 15 -25z"/>
<path d="M1554 361 c-2 -2 -4 -22 -4 -43 0 -27 4 -38 15 -38 10 0 15 10 15 30
0 18 6 33 15 36 24 10 17 22 -11 20 -14 0 -28 -3 -30 -5z"/>
<path d="M1619 349 c-18 -34 4 -73 36 -65 19 5 23 3 19 -9 -4 -10 -14 -13 -32
-8 -17 4 -23 2 -18 -6 10 -16 51 -14 65 3 7 8 11 33 9 57 -3 39 -5 42 -35 45
-25 3 -35 -1 -44 -17z m54 -11 c6 -19 -3 -38 -19 -38 -8 0 -14 10 -14 25 0 26
25 35 33 13z"/>
<path d="M570 296 c0 -9 5 -16 10 -16 6 0 10 4 10 9 0 6 -4 13 -10 16 -5 3
-10 -1 -10 -9z"/>
<path d="M1406 303 c-11 -11 -6 -23 9 -23 8 0 15 4 15 9 0 13 -16 22 -24 14z"/>
</g>
</svg>
