<?xml version="1.0" standalone="no"?>
<!DOCTYPE svg PUBLIC "-//W3C//DTD SVG 20010904//EN"
 "http://www.w3.org/TR/2001/REC-SVG-20010904/DTD/svg10.dtd">
<svg version="1.0" xmlns="http://www.w3.org/2000/svg"
 width="1600.000000pt" height="1600.000000pt" viewBox="0 0 1600.000000 1600.000000"
 preserveAspectRatio="xMidYMid meet">
<metadata>
Created by potrace 1.14, written by Peter Selinger 2001-2017
</metadata>
<g transform="translate(0.000000,1600.000000) scale(0.100000,-0.100000)"
fill="#000000" stroke="none">
<path d="M4505 14095 c-368 -68 -663 -342 -763 -710 l-27 -100 -3 -1481 -3
-1481 -1079 -462 c-594 -255 -1097 -475 -1117 -490 -111 -81 -183 -197 -203
-326 -7 -49 -10 -910 -7 -2870 2 -2591 4 -2805 20 -2869 49 -199 140 -360 279
-492 168 -159 352 -242 586 -264 148 -14 11576 -14 11724 0 235 22 418 105
587 265 139 132 229 291 278 491 16 64 18 278 20 2869 3 1915 0 2822 -7 2868
-22 145 -123 290 -248 354 -31 17 -528 232 -1104 478 l-1048 449 0 1420 c0
892 -4 1454 -10 1511 -28 245 -150 472 -340 633 -87 73 -255 160 -375 194
l-80 23 -3505 2 c-2835 1 -3518 -1 -3575 -12z m6999 -475 c92 -15 194 -68 260
-136 59 -60 83 -98 120 -194 l21 -55 3 -2797 2 -2796 -1926 -1101 c-1060 -606
-1930 -1101 -1934 -1101 -4 0 -874 495 -1934 1101 l-1926 1101 2 2796 3 2797
21 55 c37 96 61 134 120 194 61 62 164 119 245 135 63 12 6848 14 6923 1z
m-7797 -5697 c-4 -3 -1856 1052 -1869 1065 -4 4 415 188 930 408 l937 401 3
-935 c1 -514 1 -937 -1 -939z m9675 1451 c487 -208 883 -382 880 -386 -8 -8
-1862 -1068 -1868 -1068 -2 0 -4 423 -4 940 l0 940 53 -23 c28 -13 451 -194
939 -403z m-8591 -2631 c1652 -944 3031 -1729 3064 -1744 33 -16 90 -33 128
-38 88 -12 185 2 262 38 33 15 1412 800 3064 1744 1652 945 3005 1717 3007
1717 3 0 3 -1133 2 -2517 -3 -2369 -4 -2521 -21 -2569 -27 -81 -67 -144 -127
-205 -59 -59 -108 -89 -199 -120 -53 -19 -209 -19 -5916 -19 -5361 0 -5866 1
-5916 16 -162 48 -280 164 -336 328 -17 48 -18 200 -21 2569 -1 1384 -1 2517
2 2517 2 0 1355 -772 3007 -1717z"/>
<path d="M8235 11684 c-381 -68 -704 -320 -898 -702 -95 -186 -171 -425 -207
-648 l-11 -72 -162 -4 c-182 -5 -225 -17 -284 -79 -113 -120 -74 -313 77 -383
37 -17 71 -21 193 -24 l147 -4 0 -102 c0 -98 14 -293 26 -348 l6 -28 -164 0
c-150 0 -167 -2 -213 -24 -162 -75 -187 -295 -46 -403 23 -18 58 -37 79 -43
20 -5 132 -10 248 -10 l211 0 18 -65 c9 -36 43 -118 75 -183 217 -438 653
-712 1134 -712 248 0 451 66 641 207 242 180 383 440 387 713 1 104 -10 142
-57 198 -63 75 -181 102 -273 62 -55 -24 -106 -73 -127 -125 -8 -17 -18 -73
-24 -125 -19 -174 -106 -297 -268 -383 -103 -54 -185 -70 -318 -64 -130 6
-244 40 -354 105 -116 69 -236 204 -289 325 l-21 47 281 0 c193 0 294 4 322
12 56 17 141 100 155 153 25 93 5 180 -59 243 -68 69 -56 67 -472 70 l-377 3
-6 32 c-16 96 -26 186 -31 309 l-7 137 389 3 c424 3 421 3 493 64 46 38 81
116 81 179 0 63 -35 141 -81 179 -72 61 -71 61 -472 64 l-367 3 5 22 c2 12 12
54 20 92 43 197 134 408 232 541 103 138 210 219 358 270 72 25 94 28 215 28
166 1 241 -19 354 -95 138 -92 199 -190 216 -345 13 -118 32 -165 85 -212 95
-83 225 -83 319 0 62 53 79 102 77 216 -2 225 -95 434 -268 610 -154 155 -343
255 -565 297 -100 19 -314 18 -423 -1z"/>
</g>
</svg>
